<svg xmlns="http://www.w3.org/2000/svg" width="1280" height="690" viewBox="0 0 1280 690">
<rect width="100%" height="100%" fill="#ffffff"/>
<style>text{font-family:Inter,Segoe UI,Arial,sans-serif;fill:#172033}.title{font-size:25px;font-weight:700}.subtitle{font-size:14px;fill:#526072}.axis{font-size:13px;fill:#526072}.scenario{font-size:14px;font-weight:600}.value{font-size:11px;font-weight:600}</style>
<text x="36.00" y="43.00" class="title">各场景平均 GPU 利用率</text>
<text x="36.00" y="72.00" class="subtitle">同一时刻先对各 GPU 求均值，再按时间求均值</text>
<circle cx="720" cy="42" r="6" fill="#2563eb"/>
<text x="732.00" y="47.00" class="axis">K8s</text>
<circle cx="870" cy="42" r="6" fill="#16a34a"/>
<text x="882.00" y="47.00" class="axis">Kueue</text>
<circle cx="1020" cy="42" r="6" fill="#dc2626"/>
<text x="1032.00" y="47.00" class="axis">Volcano</text>
<line x1="320.00" y1="125" x2="320.00" y2="618" stroke="#dce2ea" stroke-width="1"/>
<text x="320.00" y="651.00" class="axis" text-anchor="middle">0</text>
<line x1="494.00" y1="125" x2="494.00" y2="618" stroke="#dce2ea" stroke-width="1"/>
<text x="494.00" y="651.00" class="axis" text-anchor="middle">20</text>
<line x1="668.00" y1="125" x2="668.00" y2="618" stroke="#dce2ea" stroke-width="1"/>
<text x="668.00" y="651.00" class="axis" text-anchor="middle">40</text>
<line x1="842.00" y1="125" x2="842.00" y2="618" stroke="#dce2ea" stroke-width="1"/>
<text x="842.00" y="651.00" class="axis" text-anchor="middle">60</text>
<line x1="1016.00" y1="125" x2="1016.00" y2="618" stroke="#dce2ea" stroke-width="1"/>
<text x="1016.00" y="651.00" class="axis" text-anchor="middle">80</text>
<line x1="1190.00" y1="125" x2="1190.00" y2="618" stroke="#dce2ea" stroke-width="1"/>
<text x="1190.00" y="651.00" class="axis" text-anchor="middle">100</text>
<text x="300.00" y="179.30" class="scenario" text-anchor="end">NN · 1 GPU · 单 Pod</text>
<line x1="363.50" y1="152.30" x2="424.40" y2="152.30" stroke="#2563eb" stroke-width="4" stroke-linecap="round" opacity="0.70"/>
<line x1="363.50" y1="147.30" x2="363.50" y2="157.30" stroke="#2563eb" stroke-width="2"/>
<line x1="424.40" y1="147.30" x2="424.40" y2="157.30" stroke="#2563eb" stroke-width="2"/>
<circle cx="380.90" cy="152.30" r="6" fill="#2563eb" stroke="#ffffff" stroke-width="2"/>
<text x="390.90" y="156.30" class="value" text-anchor="start" fill="#2563eb">7.000%</text>
<line x1="363.50" y1="174.30" x2="433.10" y2="174.30" stroke="#16a34a" stroke-width="4" stroke-linecap="round" opacity="0.70"/>
<line x1="363.50" y1="169.30" x2="363.50" y2="179.30" stroke="#16a34a" stroke-width="2"/>
<line x1="433.10" y1="169.30" x2="433.10" y2="179.30" stroke="#16a34a" stroke-width="2"/>
<circle cx="372.20" cy="174.30" r="6" fill="#16a34a" stroke="#ffffff" stroke-width="2"/>
<text x="382.20" y="178.30" class="value" text-anchor="start" fill="#16a34a">6.000%</text>
<line x1="398.30" y1="196.30" x2="433.10" y2="196.30" stroke="#dc2626" stroke-width="4" stroke-linecap="round" opacity="0.70"/>
<line x1="398.30" y1="191.30" x2="398.30" y2="201.30" stroke="#dc2626" stroke-width="2"/>
<line x1="433.10" y1="191.30" x2="433.10" y2="201.30" stroke="#dc2626" stroke-width="2"/>
<circle cx="424.40" cy="196.30" r="6" fill="#dc2626" stroke="#ffffff" stroke-width="2"/>
<text x="434.40" y="200.30" class="value" text-anchor="start" fill="#dc2626">12.000%</text>
<line x1="36" y1="223.60" x2="1190" y2="223.60" stroke="#eef1f5"/>
<text x="300.00" y="277.90" class="scenario" text-anchor="end">NN · 4 GPU · 多 Pod</text>
<line x1="889.85" y1="250.90" x2="1001.86" y2="250.90" stroke="#2563eb" stroke-width="4" stroke-linecap="round" opacity="0.70"/>
<line x1="889.85" y1="245.90" x2="889.85" y2="255.90" stroke="#2563eb" stroke-width="2"/>
<line x1="1001.86" y1="245.90" x2="1001.86" y2="255.90" stroke="#2563eb" stroke-width="2"/>
<circle cx="965.98" cy="250.90" r="6" fill="#2563eb" stroke="#ffffff" stroke-width="2"/>
<text x="975.98" y="254.90" class="value" text-anchor="start" fill="#2563eb">74.250%</text>
<line x1="914.86" y1="272.90" x2="934.44" y2="272.90" stroke="#16a34a" stroke-width="4" stroke-linecap="round" opacity="0.70"/>
<line x1="914.86" y1="267.90" x2="914.86" y2="277.90" stroke="#16a34a" stroke-width="2"/>
<line x1="934.44" y1="267.90" x2="934.44" y2="277.90" stroke="#16a34a" stroke-width="2"/>
<circle cx="918.12" cy="272.90" r="6" fill="#16a34a" stroke="#ffffff" stroke-width="2"/>
<text x="928.12" y="276.90" class="value" text-anchor="start" fill="#16a34a">68.750%</text>
<line x1="987.72" y1="294.90" x2="996.42" y2="294.90" stroke="#dc2626" stroke-width="4" stroke-linecap="round" opacity="0.70"/>
<line x1="987.72" y1="289.90" x2="987.72" y2="299.90" stroke="#dc2626" stroke-width="2"/>
<line x1="996.42" y1="289.90" x2="996.42" y2="299.90" stroke="#dc2626" stroke-width="2"/>
<circle cx="990.87" cy="294.90" r="6" fill="#dc2626" stroke="#ffffff" stroke-width="2"/>
<text x="1000.87" y="298.90" class="value" text-anchor="start" fill="#dc2626">77.111%</text>
<line x1="36" y1="322.20" x2="1190" y2="322.20" stroke="#eef1f5"/>
<text x="300.00" y="376.50" class="scenario" text-anchor="end">Transformer · 1 GPU · 单 Pod</text>
<line x1="419.18" y1="349.50" x2="430.61" y2="349.50" stroke="#2563eb" stroke-width="4" stroke-linecap="round" opacity="0.70"/>
<line x1="419.18" y1="344.50" x2="419.18" y2="354.50" stroke="#2563eb" stroke-width="2"/>
<line x1="430.61" y1="344.50" x2="430.61" y2="354.50" stroke="#2563eb" stroke-width="2"/>
<circle cx="423.78" cy="349.50" r="6" fill="#2563eb" stroke="#ffffff" stroke-width="2"/>
<text x="433.78" y="353.50" class="value" text-anchor="start" fill="#2563eb">11.929%</text>
<line x1="424.40" y1="371.50" x2="431.86" y2="371.50" stroke="#16a34a" stroke-width="4" stroke-linecap="round" opacity="0.70"/>
<line x1="424.40" y1="366.50" x2="424.40" y2="376.50" stroke="#16a34a" stroke-width="2"/>
<line x1="431.86" y1="366.50" x2="431.86" y2="376.50" stroke="#16a34a" stroke-width="2"/>
<circle cx="426.26" cy="371.50" r="6" fill="#16a34a" stroke="#ffffff" stroke-width="2"/>
<text x="436.26" y="375.50" class="value" text-anchor="start" fill="#16a34a">12.214%</text>
<line x1="426.89" y1="393.50" x2="434.96" y2="393.50" stroke="#dc2626" stroke-width="4" stroke-linecap="round" opacity="0.70"/>
<line x1="426.89" y1="388.50" x2="426.89" y2="398.50" stroke="#dc2626" stroke-width="2"/>
<line x1="434.96" y1="388.50" x2="434.96" y2="398.50" stroke="#dc2626" stroke-width="2"/>
<circle cx="428.13" cy="393.50" r="6" fill="#dc2626" stroke="#ffffff" stroke-width="2"/>
<text x="438.13" y="397.50" class="value" text-anchor="start" fill="#dc2626">12.429%</text>
<line x1="36" y1="420.80" x2="1190" y2="420.80" stroke="#eef1f5"/>
<text x="300.00" y="475.10" class="scenario" text-anchor="end">Transformer · 4 GPU · 单 Pod</text>
<line x1="575.10" y1="448.10" x2="635.53" y2="448.10" stroke="#2563eb" stroke-width="4" stroke-linecap="round" opacity="0.70"/>
<line x1="575.10" y1="443.10" x2="575.10" y2="453.10" stroke="#2563eb" stroke-width="2"/>
<line x1="635.53" y1="443.10" x2="635.53" y2="453.10" stroke="#2563eb" stroke-width="2"/>
<circle cx="604.77" cy="448.10" r="6" fill="#2563eb" stroke="#ffffff" stroke-width="2"/>
<text x="614.77" y="452.10" class="value" text-anchor="start" fill="#2563eb">32.732%</text>
<line x1="593.89" y1="470.10" x2="681.98" y2="470.10" stroke="#16a34a" stroke-width="4" stroke-linecap="round" opacity="0.70"/>
<line x1="593.89" y1="465.10" x2="593.89" y2="475.10" stroke="#16a34a" stroke-width="2"/>
<line x1="681.98" y1="465.10" x2="681.98" y2="475.10" stroke="#16a34a" stroke-width="2"/>
<circle cx="672.97" cy="470.10" r="6" fill="#16a34a" stroke="#ffffff" stroke-width="2"/>
<text x="682.97" y="474.10" class="value" text-anchor="start" fill="#16a34a">40.571%</text>
<line x1="614.87" y1="492.10" x2="635.52" y2="492.10" stroke="#dc2626" stroke-width="4" stroke-linecap="round" opacity="0.70"/>
<line x1="614.87" y1="487.10" x2="614.87" y2="497.10" stroke="#dc2626" stroke-width="2"/>
<line x1="635.52" y1="487.10" x2="635.52" y2="497.10" stroke="#dc2626" stroke-width="2"/>
<circle cx="627.92" cy="492.10" r="6" fill="#dc2626" stroke="#ffffff" stroke-width="2"/>
<text x="637.92" y="496.10" class="value" text-anchor="start" fill="#dc2626">35.393%</text>
<line x1="36" y1="519.40" x2="1190" y2="519.40" stroke="#eef1f5"/>
<text x="300.00" y="573.70" class="scenario" text-anchor="end">Transformer · 4 GPU · 多 Pod</text>
<line x1="897.94" y1="546.70" x2="1033.44" y2="546.70" stroke="#2563eb" stroke-width="4" stroke-linecap="round" opacity="0.70"/>
<line x1="897.94" y1="541.70" x2="897.94" y2="551.70" stroke="#2563eb" stroke-width="2"/>
<line x1="1033.44" y1="541.70" x2="1033.44" y2="551.70" stroke="#2563eb" stroke-width="2"/>
<circle cx="939.51" cy="546.70" r="6" fill="#2563eb" stroke="#ffffff" stroke-width="2"/>
<text x="949.51" y="550.70" class="value" text-anchor="start" fill="#2563eb">71.208%</text>
<line x1="907.92" y1="568.70" x2="1030.81" y2="568.70" stroke="#16a34a" stroke-width="4" stroke-linecap="round" opacity="0.70"/>
<line x1="907.92" y1="563.70" x2="907.92" y2="573.70" stroke="#16a34a" stroke-width="2"/>
<line x1="1030.81" y1="563.70" x2="1030.81" y2="573.70" stroke="#16a34a" stroke-width="2"/>
<circle cx="1029.30" cy="568.70" r="6" fill="#16a34a" stroke="#ffffff" stroke-width="2"/>
<text x="1039.30" y="572.70" class="value" text-anchor="start" fill="#16a34a">81.529%</text>
<line x1="922.03" y1="590.70" x2="1036.66" y2="590.70" stroke="#dc2626" stroke-width="4" stroke-linecap="round" opacity="0.70"/>
<line x1="922.03" y1="585.70" x2="922.03" y2="595.70" stroke="#dc2626" stroke-width="2"/>
<line x1="1036.66" y1="585.70" x2="1036.66" y2="595.70" stroke="#dc2626" stroke-width="2"/>
<circle cx="1029.89" cy="590.70" r="6" fill="#dc2626" stroke="#ffffff" stroke-width="2"/>
<text x="1039.89" y="594.70" class="value" text-anchor="start" fill="#dc2626">81.596%</text>
<text x="320.00" y="677.00" class="axis">横线：最小值–最大值；圆点：中位数；N=3</text>
</svg>
