<svg xmlns="http://www.w3.org/2000/svg" width="1280" height="690" viewBox="0 0 1280 690">
<rect width="100%" height="100%" fill="#ffffff"/>
<style>text{font-family:Inter,Segoe UI,Arial,sans-serif;fill:#172033}.title{font-size:25px;font-weight:700}.subtitle{font-size:14px;fill:#526072}.axis{font-size:13px;fill:#526072}.scenario{font-size:14px;font-weight:600}.value{font-size:11px;font-weight:600}</style>
<text x="36.00" y="43.00" class="title">各场景排队时间</text>
<text x="36.00" y="72.00" class="subtitle">Event 时间戳精度不足的亚秒结果按规则左删失为 0</text>
<circle cx="720" cy="42" r="6" fill="#2563eb"/>
<text x="732.00" y="47.00" class="axis">K8s</text>
<circle cx="870" cy="42" r="6" fill="#16a34a"/>
<text x="882.00" y="47.00" class="axis">Kueue</text>
<circle cx="1020" cy="42" r="6" fill="#dc2626"/>
<text x="1032.00" y="47.00" class="axis">Volcano</text>
<line x1="320.00" y1="125" x2="320.00" y2="618" stroke="#dce2ea" stroke-width="1"/>
<text x="320.00" y="651.00" class="axis" text-anchor="middle">0</text>
<line x1="428.75" y1="125" x2="428.75" y2="618" stroke="#dce2ea" stroke-width="1"/>
<text x="428.75" y="651.00" class="axis" text-anchor="middle">0.25</text>
<line x1="537.50" y1="125" x2="537.50" y2="618" stroke="#dce2ea" stroke-width="1"/>
<text x="537.50" y="651.00" class="axis" text-anchor="middle">0.5</text>
<line x1="646.25" y1="125" x2="646.25" y2="618" stroke="#dce2ea" stroke-width="1"/>
<text x="646.25" y="651.00" class="axis" text-anchor="middle">0.75</text>
<line x1="755.00" y1="125" x2="755.00" y2="618" stroke="#dce2ea" stroke-width="1"/>
<text x="755.00" y="651.00" class="axis" text-anchor="middle">1</text>
<line x1="863.75" y1="125" x2="863.75" y2="618" stroke="#dce2ea" stroke-width="1"/>
<text x="863.75" y="651.00" class="axis" text-anchor="middle">1.25</text>
<line x1="972.50" y1="125" x2="972.50" y2="618" stroke="#dce2ea" stroke-width="1"/>
<text x="972.50" y="651.00" class="axis" text-anchor="middle">1.5</text>
<line x1="1081.25" y1="125" x2="1081.25" y2="618" stroke="#dce2ea" stroke-width="1"/>
<text x="1081.25" y="651.00" class="axis" text-anchor="middle">1.75</text>
<line x1="1190.00" y1="125" x2="1190.00" y2="618" stroke="#dce2ea" stroke-width="1"/>
<text x="1190.00" y="651.00" class="axis" text-anchor="middle">2</text>
<text x="300.00" y="179.30" class="scenario" text-anchor="end">NN · 1 GPU · 单 Pod</text>
<line x1="446.97" y1="152.30" x2="459.89" y2="152.30" stroke="#2563eb" stroke-width="4" stroke-linecap="round" opacity="0.70"/>
<line x1="446.97" y1="147.30" x2="446.97" y2="157.30" stroke="#2563eb" stroke-width="2"/>
<line x1="459.89" y1="147.30" x2="459.89" y2="157.30" stroke="#2563eb" stroke-width="2"/>
<circle cx="455.79" cy="152.30" r="6" fill="#2563eb" stroke="#ffffff" stroke-width="2"/>
<text x="465.79" y="156.30" class="value" text-anchor="start" fill="#2563eb">0.312 s</text>
<line x1="502.93" y1="174.30" x2="535.87" y2="174.30" stroke="#16a34a" stroke-width="4" stroke-linecap="round" opacity="0.70"/>
<line x1="502.93" y1="169.30" x2="502.93" y2="179.30" stroke="#16a34a" stroke-width="2"/>
<line x1="535.87" y1="169.30" x2="535.87" y2="179.30" stroke="#16a34a" stroke-width="2"/>
<circle cx="512.35" cy="174.30" r="6" fill="#16a34a" stroke="#ffffff" stroke-width="2"/>
<text x="522.35" y="178.30" class="value" text-anchor="start" fill="#16a34a">0.442 s</text>
<line x1="320.00" y1="196.30" x2="828.08" y2="196.30" stroke="#dc2626" stroke-width="4" stroke-linecap="round" opacity="0.70"/>
<line x1="320.00" y1="191.30" x2="320.00" y2="201.30" stroke="#dc2626" stroke-width="2"/>
<line x1="828.08" y1="191.30" x2="828.08" y2="201.30" stroke="#dc2626" stroke-width="2"/>
<circle cx="664.09" cy="196.30" r="6" fill="#dc2626" stroke="#ffffff" stroke-width="2"/>
<text x="674.09" y="200.30" class="value" text-anchor="start" fill="#dc2626">0.791 s</text>
<line x1="36" y1="223.60" x2="1190" y2="223.60" stroke="#eef1f5"/>
<text x="300.00" y="277.90" class="scenario" text-anchor="end">NN · 4 GPU · 多 Pod</text>
<line x1="619.14" y1="250.90" x2="625.22" y2="250.90" stroke="#2563eb" stroke-width="4" stroke-linecap="round" opacity="0.70"/>
<line x1="619.14" y1="245.90" x2="619.14" y2="255.90" stroke="#2563eb" stroke-width="2"/>
<line x1="625.22" y1="245.90" x2="625.22" y2="255.90" stroke="#2563eb" stroke-width="2"/>
<circle cx="621.42" cy="250.90" r="6" fill="#2563eb" stroke="#ffffff" stroke-width="2"/>
<text x="631.42" y="254.90" class="value" text-anchor="start" fill="#2563eb">0.693 s</text>
<line x1="669.79" y1="272.90" x2="682.24" y2="272.90" stroke="#16a34a" stroke-width="4" stroke-linecap="round" opacity="0.70"/>
<line x1="669.79" y1="267.90" x2="669.79" y2="277.90" stroke="#16a34a" stroke-width="2"/>
<line x1="682.24" y1="267.90" x2="682.24" y2="277.90" stroke="#16a34a" stroke-width="2"/>
<circle cx="678.24" cy="272.90" r="6" fill="#16a34a" stroke="#ffffff" stroke-width="2"/>
<text x="688.24" y="276.90" class="value" text-anchor="start" fill="#16a34a">0.824 s</text>
<line x1="587.96" y1="294.90" x2="659.30" y2="294.90" stroke="#dc2626" stroke-width="4" stroke-linecap="round" opacity="0.70"/>
<line x1="587.96" y1="289.90" x2="587.96" y2="299.90" stroke="#dc2626" stroke-width="2"/>
<line x1="659.30" y1="289.90" x2="659.30" y2="299.90" stroke="#dc2626" stroke-width="2"/>
<circle cx="650.60" cy="294.90" r="6" fill="#dc2626" stroke="#ffffff" stroke-width="2"/>
<text x="660.60" y="298.90" class="value" text-anchor="start" fill="#dc2626">0.760 s</text>
<line x1="36" y1="322.20" x2="1190" y2="322.20" stroke="#eef1f5"/>
<text x="300.00" y="376.50" class="scenario" text-anchor="end">Transformer · 1 GPU · 单 Pod</text>
<line x1="451.16" y1="349.50" x2="453.07" y2="349.50" stroke="#2563eb" stroke-width="4" stroke-linecap="round" opacity="0.70"/>
<line x1="451.16" y1="344.50" x2="451.16" y2="354.50" stroke="#2563eb" stroke-width="2"/>
<line x1="453.07" y1="344.50" x2="453.07" y2="354.50" stroke="#2563eb" stroke-width="2"/>
<circle cx="451.57" cy="349.50" r="6" fill="#2563eb" stroke="#ffffff" stroke-width="2"/>
<text x="461.57" y="353.50" class="value" text-anchor="start" fill="#2563eb">0.302 s</text>
<line x1="508.71" y1="371.50" x2="518.88" y2="371.50" stroke="#16a34a" stroke-width="4" stroke-linecap="round" opacity="0.70"/>
<line x1="508.71" y1="366.50" x2="508.71" y2="376.50" stroke="#16a34a" stroke-width="2"/>
<line x1="518.88" y1="366.50" x2="518.88" y2="376.50" stroke="#16a34a" stroke-width="2"/>
<circle cx="510.77" cy="371.50" r="6" fill="#16a34a" stroke="#ffffff" stroke-width="2"/>
<text x="520.77" y="375.50" class="value" text-anchor="start" fill="#16a34a">0.439 s</text>
<line x1="320.00" y1="393.50" x2="369.59" y2="393.50" stroke="#dc2626" stroke-width="4" stroke-linecap="round" opacity="0.70"/>
<line x1="320.00" y1="388.50" x2="320.00" y2="398.50" stroke="#dc2626" stroke-width="2"/>
<line x1="369.59" y1="388.50" x2="369.59" y2="398.50" stroke="#dc2626" stroke-width="2"/>
<circle cx="320.00" cy="393.50" r="6" fill="#dc2626" stroke="#ffffff" stroke-width="2"/>
<text x="330.00" y="397.50" class="value" text-anchor="start" fill="#dc2626">0.000 s</text>
<line x1="36" y1="420.80" x2="1190" y2="420.80" stroke="#eef1f5"/>
<text x="300.00" y="475.10" class="scenario" text-anchor="end">Transformer · 4 GPU · 单 Pod</text>
<line x1="441.11" y1="448.10" x2="451.80" y2="448.10" stroke="#2563eb" stroke-width="4" stroke-linecap="round" opacity="0.70"/>
<line x1="441.11" y1="443.10" x2="441.11" y2="453.10" stroke="#2563eb" stroke-width="2"/>
<line x1="451.80" y1="443.10" x2="451.80" y2="453.10" stroke="#2563eb" stroke-width="2"/>
<circle cx="443.71" cy="448.10" r="6" fill="#2563eb" stroke="#ffffff" stroke-width="2"/>
<text x="453.71" y="452.10" class="value" text-anchor="start" fill="#2563eb">0.284 s</text>
<line x1="503.27" y1="470.10" x2="518.90" y2="470.10" stroke="#16a34a" stroke-width="4" stroke-linecap="round" opacity="0.70"/>
<line x1="503.27" y1="465.10" x2="503.27" y2="475.10" stroke="#16a34a" stroke-width="2"/>
<line x1="518.90" y1="465.10" x2="518.90" y2="475.10" stroke="#16a34a" stroke-width="2"/>
<circle cx="509.62" cy="470.10" r="6" fill="#16a34a" stroke="#ffffff" stroke-width="2"/>
<text x="519.62" y="474.10" class="value" text-anchor="start" fill="#16a34a">0.436 s</text>
<line x1="650.60" y1="492.10" x2="709.76" y2="492.10" stroke="#dc2626" stroke-width="4" stroke-linecap="round" opacity="0.70"/>
<line x1="650.60" y1="487.10" x2="650.60" y2="497.10" stroke="#dc2626" stroke-width="2"/>
<line x1="709.76" y1="487.10" x2="709.76" y2="497.10" stroke="#dc2626" stroke-width="2"/>
<circle cx="682.36" cy="492.10" r="6" fill="#dc2626" stroke="#ffffff" stroke-width="2"/>
<text x="692.36" y="496.10" class="value" text-anchor="start" fill="#dc2626">0.833 s</text>
<line x1="36" y1="519.40" x2="1190" y2="519.40" stroke="#eef1f5"/>
<text x="300.00" y="573.70" class="scenario" text-anchor="end">Transformer · 4 GPU · 多 Pod</text>
<line x1="612.13" y1="546.70" x2="615.63" y2="546.70" stroke="#2563eb" stroke-width="4" stroke-linecap="round" opacity="0.70"/>
<line x1="612.13" y1="541.70" x2="612.13" y2="551.70" stroke="#2563eb" stroke-width="2"/>
<line x1="615.63" y1="541.70" x2="615.63" y2="551.70" stroke="#2563eb" stroke-width="2"/>
<circle cx="612.68" cy="546.70" r="6" fill="#2563eb" stroke="#ffffff" stroke-width="2"/>
<text x="622.68" y="550.70" class="value" text-anchor="start" fill="#2563eb">0.673 s</text>
<line x1="671.04" y1="568.70" x2="680.94" y2="568.70" stroke="#16a34a" stroke-width="4" stroke-linecap="round" opacity="0.70"/>
<line x1="671.04" y1="563.70" x2="671.04" y2="573.70" stroke="#16a34a" stroke-width="2"/>
<line x1="680.94" y1="563.70" x2="680.94" y2="573.70" stroke="#16a34a" stroke-width="2"/>
<circle cx="678.59" cy="568.70" r="6" fill="#16a34a" stroke="#ffffff" stroke-width="2"/>
<text x="688.59" y="572.70" class="value" text-anchor="start" fill="#16a34a">0.824 s</text>
<line x1="695.40" y1="590.70" x2="1076.03" y2="590.70" stroke="#dc2626" stroke-width="4" stroke-linecap="round" opacity="0.70"/>
<line x1="695.40" y1="585.70" x2="695.40" y2="595.70" stroke="#dc2626" stroke-width="2"/>
<line x1="1076.03" y1="585.70" x2="1076.03" y2="595.70" stroke="#dc2626" stroke-width="2"/>
<circle cx="795.45" cy="590.70" r="6" fill="#dc2626" stroke="#ffffff" stroke-width="2"/>
<text x="805.45" y="594.70" class="value" text-anchor="start" fill="#dc2626">1.093 s</text>
<text x="320.00" y="677.00" class="axis">横线：最小值–最大值；圆点：中位数；N=3</text>
</svg>
